Simulation
nRows=24
nColumns=15
endheader
time  TH_x TH_y TH_z SC_y  SC_z  SC_x  AC_y  AC_z  AC_x  GH_y  GH_z  GH_yy  EL_x  PS_y
2.0  0.000000  0.000000  0.000000  -31.404363088019057  2.0037986409294706  16.133830756845445  60.72756892830289  8.791937311268372  3.3251295893600883  55.204886011771634  49.79163212278341  -56.501366668248416  23.01468899111914  0.000000
2.04  0.000000  0.000000  0.000000  -31.434093463329866  1.9131594855211982  16.136147400518293  60.75685415353225  8.782354732884658  3.1503410468325885  55.90418750771732  49.69942362302276  -57.62741010009062  22.939223962111676  0.000000
2.08  0.000000  0.000000  0.000000  -31.44264200667443  1.8172153654958763  16.11432721222762  60.78771243001079  8.788943248595738  3.0055675699978552  56.807005225938454  49.56792638774541  -59.16540033175392  22.92584953649098  0.000000
2.12  0.000000  0.000000  0.000000  -31.39197750617748  1.7047226744227892  16.050533972416414  60.82104914625531  8.817658962837237  2.901176369990708  57.9032953054055  49.35100746795069  -61.06812934828897  22.96330722641562  0.000000
2.16  0.000000  0.000000  0.000000  -31.237702931339495  1.5725798890471427  15.919256400415321  60.84253128153305  8.867037481305406  2.8549105545490416  59.156268223205785  49.02160743439047  -63.16381622528906  23.041247239395773  0.000000
2.2  0.000000  0.000000  0.000000  -30.940173824396894  1.4229608863297474  15.7029582566691  60.83778141620532  8.945819822411984  2.876862513677043  60.519252352703106  48.5662941122197  -65.20858612560453  23.140971739181243  0.000000
2.24  0.000000  0.000000  0.000000  -30.478269958069806  1.2583222528541298  15.3814709046618  60.795579409174614  9.046054614700035  2.9751312755884007  61.94373339635519  47.99705238872464  -67.00625927875699  23.244234935032782  0.000000
2.2800000000000002  0.000000  0.000000  0.000000  -29.880368003489167  1.0765405862199822  14.951954194809636  60.73165145268185  9.17762652649538  3.1335648274094603  63.4202868727388  47.344039493519766  -68.4819909575764  23.321815068328938  0.000000
2.32  0.000000  0.000000  0.000000  -29.20308274658302  0.8809504853516971  14.408040892594766  60.67166519962658  9.331677946342104  3.3278850210499398  64.94216260168197  46.67204870427358  -69.63913799179551  23.345047858467762  0.000000
2.36  0.000000  0.000000  0.000000  -28.52447635904751  0.6788040174780124  13.769064812691747  60.66676737382496  9.499632447178335  3.5217253029207507  66.4859212911558  46.052222295872646  -70.51917653989891  23.288345677408305  0.000000
2.4  0.000000  0.000000  0.000000  -27.90661311871648  0.47545259081064173  13.070388858704053  60.74384656212648  9.661617601626505  3.6856384466216987  68.00158900664245  45.543968057888094  -71.14413614589071  23.15505341388008  0.000000
2.44  0.000000  0.000000  0.000000  -27.411827933138607  0.26345393545006557  12.390528471032551  60.91583353271578  9.808623199077354  3.7828291681818698  69.45544372073337  45.17544186494125  -71.5601653606878  22.97729489091564  0.000000
2.48  0.000000  0.000000  0.000000  -27.082776402368072  0.030963276720166022  11.804673263665386  61.150636965193186  9.95154275150596  3.7956073149400478  70.85986113448382  44.94182544757705  -71.82504004370003  22.8003229656698  0.000000
2.52  0.000000  0.000000  0.000000  -26.922499506392874  -0.21863144275000126  11.361898017810356  61.42069328167653  10.096246738739358  3.731540578852858  72.21101887967595  44.821444190060866  -71.97633475238251  22.65475658877124  0.000000
2.56  0.000000  0.000000  0.000000  -26.86134023360974  -0.456327852026063  11.059823573981546  61.676355101419446  10.231807926438849  3.6484939845149786  73.48387060703003  44.76495896172617  -72.00089304594583  22.54343056171463  0.000000
2.6  0.000000  0.000000  0.000000  -26.7834836752155  -0.6381463309627625  10.851780476162073  61.87286480156251  10.341629659344717  3.6301263275662294  74.61983075912677  44.70908951004153  -71.85656757593091  22.453296125009008  0.000000
2.64  0.000000  0.000000  0.000000  -26.593169750053388  -0.7337010803143662  10.67663978170404  61.97480846201635  10.417102048056117  3.7459997524759765  75.57489457690734  44.59501796682925  -71.51848926259206  22.37034226017696  0.000000
2.68  0.000000  0.000000  0.000000  -26.273598325149656  -0.742752567139402  10.483687442445074  61.982421836203386  10.472872315150704  4.004581759152699  76.3298875850392  44.40121084561261  -71.03470322941102  22.307622702302734  0.000000
2.72  0.000000  0.000000  0.000000  -25.87463152085309  -0.6906885653508847  10.25359652766206  61.910369426258235  10.52465083255622  4.35148477196189  76.88492019317916  44.14174321879571  -70.50518003726869  22.29407756013902  0.000000
2.7600000000000002  0.000000  0.000000  0.000000  -25.478657750321187  -0.6125322090782311  10.008235866843865  61.78561874623343  10.583371000618325  4.699169526393998  77.24601418304475  43.84801895030716  -70.06451697533983  22.356647852325327  0.000000
2.8000000000000003  0.000000  0.000000  0.000000  -25.166107406014618  -0.5326478921464005  9.78521747671886  61.632255979496655  10.648380003282748  4.970743217975601  77.40937381077934  43.55669494287587  -69.79651951381827  22.503559694685137  0.000000
2.84  0.000000  0.000000  0.000000  -25.032605457602514  -0.466411043351009  9.638105933207537  61.494437187728465  10.72759267952468  5.11540046558148  77.39416566830307  43.30642361231473  -69.77238632257477  22.68777560311469  0.000000
2.88  0.000000  0.000000  0.000000  -25.1679022676274  -0.4184711860912491  9.60731668737127  61.4148253554919  10.833541041006626  5.111140521708058  77.23474611868014  43.1303674013724  -70.0260513405176  22.83453179873713  0.000000
2.92  0.000000  0.000000  0.000000  -25.623163520287452  -0.38230459400335826  9.714127991966436  61.42353600659222  10.974571454760879  4.961051611108529  76.96760827440286  43.049449449085095  -70.56141866942312  22.874893281289584  0.000000
